<svg preserveAspectRatio="none" width="100%" height="100%" overflow="visible" style="display: block;" viewBox="0 0 25.183 23.5" fill="none" xmlns="http://www.w3.org/2000/svg">
<path id="Union" fill-rule="evenodd" clip-rule="evenodd" d="M3.93066 0C4.76466 0.000220181 5.48292 0.589387 5.64648 1.40723L6.21777 4.26465L6.22154 4.26449L6.22158 4.26449C6.23101 4.26408 6.24048 4.26367 6.25 4.26367H23.4326C23.5917 4.2637 23.7501 4.28531 23.9033 4.32812C24.834 4.58818 25.3779 5.55371 25.1182 6.48438L22.6768 15.2207C22.4655 15.9768 21.7763 16.5 20.9912 16.5H8.56934C7.73534 16.4998 7.01708 15.9106 6.85352 15.0928L4.17578 1.70117C4.15244 1.58447 4.04963 1.50022 3.93066 1.5H0.75C0.335786 1.5 0 1.16421 0 0.75C0 0.335786 0.335786 0 0.75 0H3.93066ZM8.32422 14.7988C8.34756 14.9155 8.45037 14.9998 8.56934 15H20.9912C21.1033 15 21.2012 14.9253 21.2314 14.8174L23.6729 6.08105C23.7099 5.94826 23.6326 5.8108 23.5 5.77344C23.4782 5.76735 23.4552 5.7637 23.4326 5.76367H6.51758L8.32422 14.7988ZM11 21C11 20.4482 10.5518 20 10 20C9.44821 20 9 20.4482 9 21C9 21.5518 9.44821 22 10 22C10.5518 22 11 21.5518 11 21ZM12.5 21C12.5 22.3802 11.3802 23.5 10 23.5C8.61979 23.5 7.5 22.3802 7.5 21C7.5 19.6198 8.61979 18.5 10 18.5C11.3802 18.5 12.5 19.6198 12.5 21ZM19.5 20C20.0518 20 20.5 20.4482 20.5 21C20.5 21.5518 20.0518 22 19.5 22C18.9482 22 18.5 21.5518 18.5 21C18.5 20.4482 18.9482 20 19.5 20ZM19.5 23.5C20.8802 23.5 22 22.3802 22 21C22 19.6198 20.8802 18.5 19.5 18.5C18.1198 18.5 17 19.6198 17 21C17 22.3802 18.1198 23.5 19.5 23.5Z" fill="var(--fill-0, #333333)"/>
</svg>
