<svg preserveAspectRatio="none" width="100%" height="100%" overflow="visible" style="display: block;" viewBox="0 0 26 27.1784" fill="none" xmlns="http://www.w3.org/2000/svg">
<g id="logo" clip-path="url(#clip0_0_342)">
<path id="Union" d="M4.05566 23.3799H6.61914V21.5059H8.13477V27.1787H2.53027V21.5059H4.05566V23.3799ZM16.8096 22.8652L14.1084 23.832H16.8096V24.9346L14.2217 25.9375H16.8096V27.1787H11.207V26.0381L14.1514 24.8643H11.207V23.7607L13.8828 22.8281H11.207V21.5156H16.8096V22.8652ZM25.9971 22.8652L23.2959 23.832H25.9971V24.9346L23.4092 25.9375H25.9971V27.1787H20.3936V26.0381L23.3389 24.8643H20.3936V23.7607L23.0693 22.8291H20.3936V21.5156H25.9971V22.8652ZM4.05566 25.7471H6.61914V24.666H4.05566V25.7471ZM8.12988 21.0586H6.61328V13.9707H8.12988V21.0586ZM16.7676 21.0586H15.252V13.9707H16.7676V21.0586ZM26 21.0586H24.4844V17.5664H23.6826V15.9805H24.4844V13.9707H26V21.0586ZM3.8584 16.7451L6.05957 18.8916L4.92578 20.0566L3.0293 18.1934L1.13379 20.0566L0 18.8916L2.20117 16.7451V14.4082H3.8584V16.7451ZM22.3496 14.4814H23.4561V15.9873H22.3496V15.9902H21.7051V16.4316L23.9805 18.46L22.9551 19.6338L20.9258 17.7998L19.0107 19.6338L17.8633 18.5117L20.1035 16.4316V15.9902H18.3496V14.4805H22.3496V14.4814ZM11.9551 14.0117C13.4767 14.0117 14.7109 15.2448 14.7109 16.7676C14.7109 18.2903 13.4778 19.5234 11.9551 19.5234C10.4323 19.5234 9.19924 18.2904 9.19922 16.7676C9.19922 15.2448 10.4334 14.0117 11.9551 14.0117ZM11.9717 15.4385C11.2381 15.4386 10.6426 16.034 10.6426 16.7676C10.6426 17.5012 11.237 18.0965 11.9717 18.0967C12.7054 18.0967 13.3017 17.5013 13.3018 16.7676C13.3018 16.0339 12.7054 15.4385 11.9717 15.4385Z" fill="var(--fill-0, white)"/>
<path id="Union_2" d="M13.4521 10.7734H16.8018V12.2246H11.9453V6.64258H13.4521V10.7734ZM8.03809 8.14941H0.893555V6.64258H8.03809V8.14941ZM25.9561 8.14941H18.8105V6.64258H25.9561V8.14941ZM13.5078 3.59668H11.2627V4.58496H13.5078V6.02832H9.60059V2.22949H11.9658V1.40527L9.60059 1.40332V0.00488281L13.5078 0V3.59668ZM15.4062 1.5625H15.8525V0H17.3037V6.02832H15.8525V3.12598H15.4062V6.02832H13.9551V0H15.4062V1.5625ZM7.5918 5.69336H6.08496V1.5625H1.45215V0H7.5918V5.69336ZM25.3418 1.50684H20.877V4.18652H25.3418V5.6377H19.3135V0.0556641H25.3418V1.50684Z" fill="var(--fill-0, white)"/>
</g>
<defs>
<clipPath id="clip0_0_342">
<rect width="26" height="27.1784" fill="white"/>
</clipPath>
</defs>
</svg>
