<svg preserveAspectRatio="none" width="100%" height="100%" overflow="visible" style="display: block;" viewBox="0 0 22 21.625" fill="none" xmlns="http://www.w3.org/2000/svg">
<path id="Combined-Shape" fill-rule="evenodd" clip-rule="evenodd" d="M11.9 0.3L21.4 7.425C21.7777 7.70828 22 8.15286 22 8.625V20.125C22 20.9534 21.3284 21.625 20.5 21.625H11.75V13.625C11.75 13.2108 11.4142 12.875 11 12.875C10.5858 12.875 10.25 13.2108 10.25 13.625V21.625H1.5C0.671573 21.625 0 20.9534 0 20.125V8.625C0 8.15286 0.222291 7.70828 0.6 7.425L10.1 0.3C10.6333 -0.1 11.3667 -0.1 11.9 0.3Z" fill="url(#paint0_linear_0_398)"/>
<defs>
<linearGradient id="paint0_linear_0_398" x1="-3.00695e-07" y1="0.365467" x2="21.6346" y2="21.6313" gradientUnits="userSpaceOnUse">
<stop stop-color="#FF5A2E"/>
<stop offset="0.519561" stop-color="#FF0038"/>
<stop offset="1" stop-color="#FF00EF"/>
</linearGradient>
</defs>
</svg>
