<svg preserveAspectRatio="none" width="100%" height="100%" overflow="visible" style="display: block;" viewBox="0 0 21.5 23" fill="none" xmlns="http://www.w3.org/2000/svg">
<path id="Union" fill-rule="evenodd" clip-rule="evenodd" d="M10.75 1.5C13.3734 1.5 15.5 3.62665 15.5 6.25C15.5 8.87335 13.3734 11 10.75 11C8.12665 11 6 8.87335 6 6.25C6 3.62665 8.12665 1.5 10.75 1.5ZM13.815 11.6981C15.7162 10.6263 17 8.58808 17 6.25C17 2.79822 14.2018 0 10.75 0C7.29822 0 4.5 2.79822 4.5 6.25C4.5 8.58808 5.78385 10.6263 7.68503 11.6981C3.29845 12.6013 0.000102736 16.4848 0 21.1387V22.25C0 22.6642 0.335786 23 0.75 23C1.16421 23 1.5 22.6642 1.5 22.25V21.1387C1.50012 16.6439 5.14386 13.0001 9.63867 13H11.8613C16.3561 13.0001 19.9999 16.6439 20 21.1387V22.25C20 22.6642 20.3358 23 20.75 23C21.1642 23 21.5 22.6642 21.5 22.25V21.1387C21.4999 16.4848 18.2016 12.6013 13.815 11.6981Z" fill="var(--fill-0, #333333)"/>
</svg>
