<svg preserveAspectRatio="none" width="100%" height="100%" overflow="visible" style="display: block;" viewBox="0 0 22 22" fill="none" xmlns="http://www.w3.org/2000/svg">
<path id="Union" fill-rule="evenodd" clip-rule="evenodd" d="M20.25 1.5C20.3881 1.5 20.5 1.61193 20.5 1.75V20.25C20.5 20.3881 20.3881 20.5 20.25 20.5H1.75C1.61193 20.5 1.5 20.3881 1.5 20.25V1.75C1.5 1.61193 1.61193 1.5 1.75 1.5H20.25ZM20.25 22C21.2165 22 22 21.2165 22 20.25V1.75C22 0.783502 21.2165 0 20.25 0H1.75C0.783502 0 0 0.783502 0 1.75V20.25C0 21.2165 0.783502 22 1.75 22H20.25ZM11 4.25C10.5858 4.25 10.25 4.58579 10.25 5V11C10.25 11.2634 10.3884 11.508 10.6143 11.6436L15.6143 14.6436C15.9694 14.8564 16.4305 14.7408 16.6436 14.3857C16.8564 14.0306 16.7408 13.5695 16.3857 13.3564L11.75 10.5742V5C11.75 4.58579 11.4142 4.25 11 4.25Z" fill="var(--fill-0, #333333)"/>
</svg>
