<svg preserveAspectRatio="none" width="100%" height="100%" overflow="visible" style="display: block;" viewBox="0 0 22.0243 22.2743" fill="none" xmlns="http://www.w3.org/2000/svg">
<path id="Union" d="M8.5 0C13.1944 8.05346e-09 17 3.80558 17 8.5C17 10.6501 16.1992 12.6115 14.8828 14.1084C14.9361 14.1399 14.9874 14.1769 15.0332 14.2227L21.8047 20.9941C22.0974 21.287 22.0975 21.7619 21.8047 22.0547C21.5119 22.3475 21.037 22.3474 20.7441 22.0547L13.9727 15.2832C13.9195 15.2301 13.8786 15.1694 13.8447 15.1064C12.3844 16.2894 10.5258 17 8.5 17C3.80558 17 8.0532e-09 13.1944 0 8.5C0 3.80558 3.80558 0 8.5 0ZM8.5 1.5C4.63401 1.5 1.5 4.63401 1.5 8.5C1.5 12.366 4.63401 15.5 8.5 15.5C12.366 15.5 15.5 12.366 15.5 8.5C15.5 4.63401 12.366 1.5 8.5 1.5Z" fill="var(--fill-0, #333333)"/>
</svg>
