<svg preserveAspectRatio="none" width="100%" height="100%" overflow="visible" style="display: block;" viewBox="0 0 20.7422 18.5" fill="none" xmlns="http://www.w3.org/2000/svg">
<path id="sidemenu" fill-rule="evenodd" clip-rule="evenodd" d="M19.9922 0C20.4064 0 20.7422 0.335786 20.7422 0.75C20.7422 1.16421 20.4064 1.5 19.9922 1.5H0.75C0.335786 1.5 0 1.16421 0 0.75C0 0.335786 0.335786 0 0.75 0H19.9922ZM19.9922 9C20.4064 9 20.7422 9.33579 20.7422 9.75C20.7422 10.1642 20.4064 10.5 19.9922 10.5H0.75C0.335786 10.5 0 10.1642 0 9.75C0 9.33579 0.335786 9 0.75 9H19.9922ZM20.7422 17.75C20.7422 17.3358 20.4064 17 19.9922 17H0.75C0.335786 17 0 17.3358 0 17.75C0 18.1642 0.335786 18.5 0.75 18.5H19.9922C20.4064 18.5 20.7422 18.1642 20.7422 17.75Z" fill="var(--fill-0, #333333)"/>
</svg>
