<svg preserveAspectRatio="none" width="100%" height="100%" overflow="visible" style="display: block;" viewBox="0 0 55.9223 24" fill="none" xmlns="http://www.w3.org/2000/svg">
<path id="Shape Copy" fill-rule="evenodd" clip-rule="evenodd" d="M6.52487 0L0 5.1017V7.95575L2.86137 7.95556L6.03229 5.48897V23.5302L6.50443 24H9.58046L10.0507 23.5296V0.470385L9.57872 0.000577159L6.52487 0ZM43.8925 0H30.6188L30.1478 0.470962L30.1476 3.53914L30.6194 4.00837H42.228L50.2395 12.0001L42.2276 19.992H24.1198V0.470385L23.6478 0.000577159L20.5938 0L14.0691 5.1017V7.95575H16.9301L20.1014 5.48897V23.5302L20.566 23.9923L20.5734 24H43.8925L55.9223 12.0001L43.8925 0Z" fill="url(#paint0_linear_0_3)"/>
<defs>
<linearGradient id="paint0_linear_0_3" x1="0" y1="0" x2="17.3959" y2="40.5342" gradientUnits="userSpaceOnUse">
<stop stop-color="#FF5A2E"/>
<stop offset="0.5196" stop-color="#FF0038"/>
<stop offset="1" stop-color="#FF00EF"/>
</linearGradient>
</defs>
</svg>
